# xmcd
# 
# Track frame offsets:
#     150
#     18631
#     37500
#     60388
#     93512
#     106481
#     133769
#     149253
#     175198
#     197966
#     219098
#     233410
# 
# Disc length: 3418
# 
# Revision: 9
# Processed by: cddbd v1.5.2PL0 Copyright (c) Steve Scherf et al.
# Submitted via: fre:ac v1.0.17
# 
DISCID=9a0d580c
DTITLE=Willy DeVille - The Willy DeVille Acoustic Trio In Berlin [CD2)
DYEAR=2002
DGENRE=Blues
TTITLE0=I'm Blue So Blue
TTITLE1=Keep A Knocking - Sea Cruise
TTITLE2=Shake Rattle And Roll
TTITLE3=Rambling On My Mind
TTITLE4=One Night Of Sin
TTITLE5=Steady Drivin' Man
TTITLE6=Goin' Over The Hill
TTITLE7=Bamboo Road
TTITLE8=Who's Gonna Shoe Your Pretty Little Foot
TTITLE9=Carmelita
TTITLE10=All By Myself
TTITLE11=Billy The Kid
EXTD=YEAR: 2002
EXTT0=
EXTT1=
EXTT2=
EXTT3=
EXTT4=
EXTT5=
EXTT6=
EXTT7=
EXTT8=
EXTT9=
EXTT10=
EXTT11=
PLAYORDER=
